<svg width="40" height="27" viewBox="0 0 40 27" fill="none" xmlns="http://www.w3.org/2000/svg">
<g id="Netflix-Logo.wine">
<path id="Vector" d="M8.84592 17.013C8.38306 17.0946 7.91206 17.119 7.42483 17.1842L5.93871 12.8167V17.3716C5.47585 17.4205 5.05359 17.4857 4.61507 17.5508V9.20691H5.84944L7.5385 13.9412V9.20691H8.84592V17.013ZM11.4039 12.2626C11.9075 12.2626 12.6789 12.2381 13.1418 12.2381V13.5418C12.5652 13.5418 11.8912 13.5418 11.4039 13.5663V15.5056C12.1673 15.4567 12.9307 15.3915 13.7021 15.367V16.6218L10.1046 16.9071V9.20691H13.7021V10.5107H11.4039V12.2626ZM18.5339 10.5107H17.1859V16.5079C16.7473 16.5079 16.3088 16.5079 15.8866 16.5241V10.5107H14.5386V9.20691H18.5339L18.5339 10.5107ZM20.6452 12.1729H22.4237V13.4767H20.6452V16.4346H19.3702V9.20691H23.0002V10.5107H20.6452V12.1729ZM25.1116 15.2937C25.8506 15.31 26.5977 15.3671 27.3204 15.4078V16.6953C26.1592 16.6219 24.9979 16.5486 23.8123 16.5241V9.20691H25.1116V15.2937ZM28.4167 16.7849C28.8309 16.8094 29.2694 16.8338 29.6917 16.8827V9.20691H28.4167V16.7849ZM35.3843 9.20691L33.7358 13.1752L35.3843 17.5508C34.897 17.4857 34.4098 17.396 33.9225 17.3145L32.9887 14.9027L32.0386 17.119C31.5676 17.0375 31.1128 17.013 30.6419 16.9478L32.3147 13.1262L30.8042 9.20691H32.2009L33.0536 11.3988L33.9632 9.20691H35.3843Z" fill="#D81F26"/>
</g>
</svg>
